# xmcd
#
# Track frame offsets: 
#        150
#        15763
#        35147
#        58132
#        73217
#        89416
#        104527
#        124283
#        142579
#
# Disc length: 2285 seconds
#
# Revision: 0
# Processed by: cddbd v1.5.2PL0 Copyright (c) Steve Scherf et al.
# Submitted via: ExactAudioCopy v0.99pb5
#
DISCID=7b08eb09
DTITLE=Esther Phillips - From A Whisper To A Scream
DYEAR=1971
DGENRE=Funk
TTITLE0=Home Is Where The Hatred Is
TTITLE1=From A Whisper To A Scream
TTITLE2=To Lay Down Beside You
TTITLE3=That's All Right With Me
TTITLE4='Til My Back Ain't Got No Bone
TTITLE5=Sweet Touch Of Love
TTITLE6=Baby, I'm For Real
TTITLE7=Your Love Is So Doggone Good
TTITLE8=Scarred Knees
EXTD=
EXTT0=
EXTT1=
EXTT2=
EXTT3=
EXTT4=
EXTT5=
EXTT6=
EXTT7=
EXTT8=
PLAYORDER=
